<svg width="152" height="45" viewBox="0 0 152 45" fill="none" xmlns="http://www.w3.org/2000/svg">
<path d="M40.181 4.80618C39.0151 2.17498 36.4421 0.48587 33.5742 0.48587H12.0186C9.0704 0.48587 6.53756 2.2692 5.41187 4.81292C2.73166 5.93 0.942627 8.60155 0.942627 11.5154V33.1706C0.942627 36.1921 2.79196 38.7897 5.41187 39.8799C6.57777 42.5111 9.1508 44.2002 12.0186 44.2002H33.5809C36.5292 44.2002 39.0619 42.4169 40.1876 39.8731C42.8678 38.7561 44.6569 36.0845 44.6569 33.1706V11.5154C44.6569 8.49388 42.8076 5.89635 40.181 4.80618ZM12.0186 1.15881H33.5809C35.9663 1.15881 38.1306 2.45088 39.2898 4.50335C39.2295 4.48989 39.1692 4.47644 39.1089 4.46298C38.9882 4.43606 38.8744 4.40914 38.7538 4.38223C38.6198 4.35531 38.4857 4.3351 38.3517 4.32164C38.2579 4.30819 38.1708 4.29473 38.077 4.28801C37.9296 4.27455 37.7755 4.2678 37.6281 4.2678C37.5611 4.2678 37.494 4.25437 37.427 4.25437C37.4002 4.25437 37.3667 4.2611 37.3399 4.2611C37.226 4.2611 37.1122 4.26781 36.9982 4.28127C36.8508 4.288 36.7101 4.30145 36.5694 4.31491C36.556 4.31491 36.5426 4.31492 36.5225 4.32164C35.6983 3.60833 34.6597 3.21801 33.5742 3.21801H12.0186C10.8929 3.21801 9.86775 3.63524 9.07709 4.31491H9.07038L8.94977 4.4226C8.94307 4.42933 8.93635 4.44278 8.92965 4.44951C8.74874 4.61774 8.58123 4.80617 8.43382 5.00132C8.41372 5.02824 8.39361 5.04842 8.3802 5.07534C8.23949 5.27049 8.10552 5.4791 7.99831 5.70117C7.98491 5.72808 7.97148 5.7483 7.96478 5.77522C7.85757 6.00402 7.76378 6.23281 7.69007 6.4818C7.68337 6.49526 7.68336 6.50872 7.67666 6.52218C7.59625 6.79808 7.54936 7.08073 7.52256 7.37682L7.49577 7.70656H7.50244C7.50244 7.72675 7.50244 7.74018 7.50244 7.76037C7.50244 10.2637 9.53273 12.296 12.0186 12.296V14.3485C8.68177 14.3485 5.92113 11.8317 5.5124 8.58811L5.50569 8.55447C5.49229 8.4468 5.4856 8.35259 5.4789 8.25838C5.4655 8.09014 5.45207 7.9286 5.45207 7.76037C5.45207 7.53829 5.46551 7.31623 5.48561 7.09416C5.49901 6.97976 5.51908 6.85866 5.53918 6.74426C5.55259 6.64332 5.56599 6.54237 5.58609 6.44816C5.6732 6.02421 5.80052 5.60696 5.96803 5.2032L5.98815 5.14939C6.99993 2.80082 9.31832 1.15881 12.0186 1.15881ZM30.1905 11.6163H15.4024V11.5221C15.4024 8.20452 13.1108 5.30414 9.96156 4.48988C10.5579 4.11303 11.2615 3.89095 12.0119 3.89095H33.5742C34.3113 3.89095 35.0216 4.10631 35.6313 4.49662C32.5089 5.29742 30.1905 8.14396 30.1905 11.5221V11.6163ZM37.4204 7.65271C37.4204 7.68636 37.427 7.72002 37.427 7.74693C37.427 9.88016 35.6983 11.6096 33.5809 11.6096V11.5154C33.5742 9.3889 35.2963 7.65271 37.4204 7.65271ZM33.5742 12.2893C36.0668 12.2893 38.0904 10.2503 38.0904 7.75367C38.0904 7.74021 38.0904 7.73345 38.0904 7.71999C38.0971 7.71999 38.1105 7.72 38.1172 7.72673C38.2847 7.76037 38.4522 7.80075 38.613 7.85459C38.6331 7.86132 38.6466 7.86807 38.6667 7.87479C38.8141 7.92863 38.9614 7.98917 39.1021 8.05646C39.1222 8.06992 39.1424 8.07668 39.1692 8.09014C39.3233 8.17089 39.4774 8.25835 39.6181 8.35929C39.6248 8.36602 39.6315 8.37277 39.6449 8.3795C39.7856 8.48044 39.9196 8.58811 40.0469 8.70924C40.0536 8.71597 40.0604 8.72271 40.0671 8.72271C39.598 11.9394 36.8374 14.3485 33.5809 14.3485H30.1972H15.4091V12.296H30.1972H33.5742V12.2893ZM41.2732 11.5154V33.1706C41.2732 33.9445 41.0453 34.6848 40.6232 35.3173C39.8861 32.0939 37.0116 29.6781 33.5809 29.6781V15.0147C36.9781 15.0147 39.8861 12.6392 40.6232 9.37544C41.0319 9.98782 41.2732 10.7213 41.2732 11.5154ZM37.4204 37.0333C35.303 37.0333 33.5742 35.2971 33.5742 33.1706V33.0765C35.6983 33.0765 37.4204 34.8126 37.4204 36.9391C37.4271 36.9728 37.4204 37.0064 37.4204 37.0333ZM32.9042 33.0765V33.1706C32.9042 35.6471 34.8875 37.6659 37.3466 37.7063C37.3131 37.8812 37.2662 38.0495 37.2059 38.211C37.1992 38.2379 37.1858 38.2581 37.1791 38.285C37.0585 38.608 36.8977 38.9176 36.69 39.2002C36.6766 39.2204 36.6565 39.2473 36.6431 39.2675C36.5359 39.4088 36.4287 39.5367 36.3014 39.6645C33.1856 39.1262 30.8605 36.3604 30.8605 33.1706V33.0765V29.6781V15.0147H32.9042V29.6781V33.0765ZM15.4024 33.0765H30.1905V33.1706C30.1905 36.4882 32.4821 39.3886 35.6313 40.2029C35.035 40.5797 34.3314 40.8018 33.5809 40.8018H12.0186C11.2816 40.8018 10.5713 40.5865 9.96156 40.1961C13.084 39.3953 15.4024 36.5488 15.4024 33.1706V33.0765ZM8.17249 37.0333C8.17249 36.9997 8.16582 36.9661 8.16582 36.9391C8.16582 34.8059 9.89456 33.0765 12.0119 33.0765V33.1706C12.0186 35.3039 10.2899 37.0333 8.17249 37.0333ZM12.0186 32.4035C9.52603 32.4035 7.50244 34.4425 7.50244 36.9391C7.50244 36.9526 7.50244 36.9593 7.50244 36.9728H7.49577C7.31486 36.9391 7.13391 36.892 6.95969 36.8382C6.79218 36.7843 6.62468 36.7103 6.47057 36.6363C6.45717 36.6296 6.44377 36.6228 6.43707 36.6161C6.27626 36.5353 6.12215 36.4411 5.97474 36.3402C5.96804 36.3335 5.96132 36.3335 5.96132 36.3267C5.82061 36.2258 5.68662 36.1181 5.55931 35.997C5.55261 35.9903 5.54589 35.9836 5.53918 35.9768C6.00822 32.7602 8.76884 30.351 12.0253 30.351H15.4091H30.1972V32.4035H15.4091H12.0186ZM4.31968 33.1706V11.5154C4.31968 10.7415 4.54752 10.0013 4.96966 9.3687C5.70671 12.5921 8.58125 15.008 12.0119 15.008V29.6713C8.61475 29.6713 5.70671 32.0468 4.96966 35.3106C4.56092 34.7049 4.31968 33.9647 4.31968 33.1706ZM8.17249 7.65271C10.2966 7.65271 12.0186 9.3889 12.0186 11.5154V11.6096C9.89456 11.6096 8.17249 9.87343 8.17249 7.74693C8.16579 7.71329 8.17249 7.68636 8.17249 7.65271ZM12.6887 11.6163V11.5221C12.6887 9.0457 10.7053 7.02688 8.24623 6.98651C8.27973 6.81154 8.32661 6.64331 8.38691 6.4818C8.39361 6.45488 8.40704 6.43471 8.41374 6.40779C8.53435 6.08478 8.69515 5.77519 8.90287 5.49256C8.91627 5.47237 8.93637 5.44547 8.94977 5.42528C9.05698 5.28396 9.1642 5.15608 9.29151 5.02822C12.4073 5.56658 14.7323 8.33238 14.7323 11.5221V11.6163V15.0147V29.6781H12.6887V15.0147V11.6163ZM15.4024 15.0147H30.1905V29.6781H15.4024V15.0147ZM1.60597 33.1706V11.5154C1.60597 9.0928 2.97288 6.84517 5.07685 5.7079C5.07015 5.74155 5.06347 5.76848 5.05677 5.80212C4.98976 6.05784 4.92946 6.31358 4.88925 6.57602C4.87585 6.65678 4.86246 6.73752 4.85576 6.81827C4.81555 7.1211 4.78873 7.43065 4.78873 7.74693C4.78873 7.92863 4.80216 8.11704 4.81556 8.32565C4.82226 8.37276 4.81552 8.42658 4.82222 8.47368C4.06506 9.30813 3.64963 10.3848 3.64963 11.5154V33.1706C3.64963 34.3416 4.09856 35.4048 4.82222 36.2056V36.2123L4.93616 36.3267C4.93616 36.3267 4.94287 36.3267 4.94287 36.3335C5.12378 36.5219 5.32477 36.6901 5.53918 36.8449C5.55259 36.8516 5.56598 36.8651 5.57939 36.8786C5.7871 37.0266 6.00825 37.1545 6.23607 37.2621C6.25617 37.2689 6.26954 37.2823 6.28964 37.289C6.51746 37.3967 6.75868 37.4842 7.0066 37.5515C7.02 37.5582 7.04011 37.5582 7.05351 37.565C7.30143 37.6323 7.56277 37.6726 7.82409 37.6928C7.83079 37.6928 7.83076 37.6928 7.83746 37.6928L8.23281 37.7197V37.7063C10.6986 37.6726 12.6954 35.6538 12.6954 33.1706V33.0765H14.739V33.1706C14.739 36.5084 12.2531 39.2675 9.04359 39.6982C8.82917 39.7251 8.62145 39.7453 8.40703 39.752C8.34673 39.752 8.28641 39.7588 8.22611 39.7588C7.97149 39.7588 7.71686 39.752 7.46223 39.7184C7.40193 39.7117 7.34165 39.6982 7.27464 39.6914C7.07363 39.6645 6.87259 39.6309 6.67158 39.5771C6.61127 39.5636 6.55099 39.5434 6.49069 39.5299C6.26957 39.4694 6.04843 39.4021 5.83401 39.3146C5.78711 39.2944 5.74023 39.2809 5.69332 39.2607L5.59951 39.2271C3.25432 38.2244 1.60597 35.8893 1.60597 33.1706ZM33.5742 43.5272H12.0186C9.63324 43.5272 7.46896 42.2352 6.30976 40.1827C6.35667 40.1962 6.41026 40.2029 6.46386 40.2164C6.59787 40.25 6.73187 40.2837 6.87258 40.3038C6.98649 40.324 7.10041 40.3442 7.21432 40.3576C7.32153 40.3711 7.43543 40.3846 7.54264 40.398C7.68335 40.4115 7.8174 40.4182 7.95811 40.4182C8.03181 40.4182 8.09878 40.4317 8.17249 40.4317C8.20599 40.4317 8.2328 40.425 8.26631 40.425C8.39362 40.425 8.52093 40.4115 8.64154 40.4048C8.76215 40.398 8.88945 40.3913 9.01006 40.3779C9.03016 40.3779 9.05028 40.3778 9.07709 40.3711C9.90125 41.0844 10.9398 41.4748 12.0186 41.4748H33.5809C34.7066 41.4748 35.7318 41.0575 36.5225 40.3779H36.5292L36.6498 40.2702C36.6565 40.2634 36.6631 40.25 36.6698 40.2433C36.8508 40.075 37.0183 39.8866 37.1658 39.6914C37.1859 39.6645 37.2059 39.6443 37.2193 39.6174C37.36 39.4223 37.494 39.2137 37.6012 38.9916C37.6146 38.9647 37.6281 38.9445 37.6348 38.9176C37.742 38.6955 37.8358 38.4599 37.9095 38.211C37.9162 38.1975 37.9162 38.184 37.9229 38.1706C38.0033 37.8947 38.0502 37.6121 38.077 37.316L38.0971 36.9929H38.0904C38.0904 36.9728 38.0904 36.9593 38.0904 36.9391C38.0904 34.4358 36.0601 32.4035 33.5742 32.4035V30.351C36.9312 30.351 39.6986 32.8947 40.0872 36.1652C40.1207 36.4411 40.1341 36.6969 40.1341 36.9459C40.1341 37.1679 40.1207 37.39 40.1006 37.6053C40.0805 37.7803 40.0536 37.9486 40.0201 38.1235C40.0134 38.1639 40.0068 38.211 40.0001 38.2513C39.913 38.6753 39.7856 39.0925 39.6181 39.4963L39.5914 39.5636C38.5863 41.892 36.2679 43.5272 33.5742 43.5272ZM43.9869 33.1706C43.9869 35.5932 42.62 37.8409 40.516 38.9781C40.5227 38.9512 40.5294 38.9243 40.5361 38.8974C40.6098 38.6349 40.6634 38.3725 40.7103 38.1033C40.7237 38.0226 40.7371 37.9486 40.7438 37.8678C40.784 37.565 40.8108 37.2554 40.8108 36.9391C40.8108 36.6969 40.7974 36.4546 40.7773 36.2123C41.5344 35.3779 41.9499 34.3012 41.9499 33.1706V11.5154C41.9499 10.3445 41.5009 9.28122 40.7773 8.48042V8.47368L40.6634 8.35929C40.4825 8.17087 40.2815 8.00263 40.0671 7.84785C40.0537 7.83439 40.0402 7.82767 40.0201 7.81421C39.8191 7.67289 39.6047 7.54504 39.3769 7.43737C39.3501 7.42391 39.33 7.41046 39.3032 7.40373C39.0821 7.30279 38.8542 7.22204 38.613 7.15474C38.5862 7.14801 38.5527 7.14126 38.5192 7.1278C38.2847 7.06723 38.0435 7.02686 37.7889 7.00667C37.7755 7.00667 37.7687 6.99998 37.762 6.99998L37.3667 6.97304V6.99324C34.9009 7.02016 32.9042 9.04571 32.9042 11.5289V11.6231H30.8605V11.5289C30.8605 8.1978 33.333 5.44547 36.5359 5.00806C36.7637 4.97441 36.9848 4.96094 37.2059 4.95421C37.2729 4.95421 37.3333 4.94747 37.4003 4.94747C37.6415 4.94747 37.876 4.96097 38.1105 4.98115C38.2311 4.99461 38.345 5.01477 38.4589 5.03496C38.5996 5.05515 38.7403 5.08206 38.8811 5.11571C38.9749 5.1359 39.062 5.16285 39.1558 5.18976C39.3434 5.2436 39.531 5.30414 39.7186 5.37143C39.799 5.40508 39.8861 5.43201 39.9732 5.46565H39.98C42.3318 6.46834 43.9869 8.81018 43.9869 11.5356V33.1706Z" fill="black"/>
<path d="M71.8684 7.84914V23.1491H68.3275V16.8761H61.377V23.1491H57.8361V7.84914H61.377V13.8817H68.3275V7.84914H71.8684ZM86.242 20.3077V23.1491H74.3955V7.84914H85.9579V10.6906H77.9145V14.0129H85.018V16.7669H77.9145V20.3077H86.242ZM87.9665 7.84914H91.5074V20.264H99.1792V23.1491H87.9665V7.84914ZM111.911 20.3077V23.1491H100.065V7.84914H111.627V10.6906H103.584V14.0129H110.687V16.7669H103.584V20.3077H111.911ZM127.668 7.84914V23.1491H124.761L117.133 13.8599V23.1491H113.636V7.84914H116.565L124.171 17.1384V7.84914H127.668ZM140.271 19.8706H133.168L131.813 23.1491H128.184L135.004 7.84914H138.501L145.342 23.1491H141.626L140.271 19.8706ZM139.157 17.1821L136.73 11.3244L134.304 17.1821H139.157Z" fill="black"/>
<path d="M58.7225 36.5372H57.4085V38.8002H56.667V33.2061H58.5188C59.1489 33.2061 59.633 33.3496 59.9711 33.6364C60.3118 33.9233 60.4821 34.3408 60.4821 34.889C60.4821 35.2373 60.3874 35.5408 60.1978 35.7995C60.0108 36.0582 59.7496 36.2516 59.414 36.3797L60.728 38.7541V38.8002H59.9366L58.7225 36.5372ZM57.4085 35.934H58.5419C58.9082 35.934 59.1989 35.8392 59.414 35.6497C59.6318 35.4601 59.7406 35.2066 59.7406 34.889C59.7406 34.5432 59.6369 34.2781 59.4294 34.0936C59.2245 33.9092 58.9274 33.8157 58.538 33.8132H57.4085V35.934ZM65.8226 36.1837C65.8226 36.7319 65.7304 37.2108 65.546 37.6207C65.3616 38.0279 65.1003 38.3391 64.7622 38.5543C64.4241 38.7694 64.0297 38.877 63.5788 38.877C63.1383 38.877 62.7477 38.7694 62.407 38.5543C62.0664 38.3366 61.8012 38.0279 61.6117 37.6284C61.4247 37.2262 61.3287 36.7613 61.3235 36.2337V35.8303C61.3235 35.2924 61.417 34.8172 61.604 34.4049C61.791 33.9925 62.0548 33.6774 62.3955 33.4597C62.7387 33.2394 63.1306 33.1293 63.5712 33.1293C64.0194 33.1293 64.4139 33.2381 64.7545 33.4559C65.0977 33.671 65.3616 33.9848 65.546 34.3972C65.7304 34.807 65.8226 35.2847 65.8226 35.8303V36.1837ZM65.0888 35.8226C65.0888 35.1592 64.9556 34.6507 64.6892 34.2973C64.4228 33.9412 64.0501 33.7632 63.5712 33.7632C63.105 33.7632 62.7374 33.9412 62.4685 34.2973C62.2021 34.6507 62.0651 35.1425 62.0574 35.7726V36.1837C62.0574 36.8266 62.1919 37.3325 62.4608 37.7014C62.7323 38.0676 63.105 38.2508 63.5788 38.2508C64.0553 38.2508 64.4241 38.0779 64.6854 37.7321C64.9466 37.3837 65.0811 36.8856 65.0888 36.2375V35.8226ZM66.9291 38.8002V33.2061H68.758C69.365 33.2061 69.8209 33.3316 70.1257 33.5826C70.4331 33.8337 70.5868 34.2051 70.5868 34.6968C70.5868 34.9581 70.5125 35.1899 70.364 35.3923C70.2154 35.5921 70.013 35.747 69.7569 35.8572C70.0591 35.9417 70.2974 36.103 70.4715 36.3413C70.6483 36.5769 70.7366 36.8587 70.7366 37.1865C70.7366 37.6885 70.574 38.083 70.2487 38.3699C69.9234 38.6567 69.4636 38.8002 68.8694 38.8002H66.9291ZM67.6668 36.1837V38.197H68.8848C69.228 38.197 69.4982 38.1086 69.6954 37.9319C69.8952 37.7526 69.9951 37.5067 69.9951 37.1942C69.9951 36.5206 69.6288 36.1837 68.8963 36.1837H67.6668ZM67.6668 35.5921H68.781C69.1038 35.5921 69.3612 35.5114 69.5533 35.35C69.7479 35.1886 69.8453 34.9696 69.8453 34.693C69.8453 34.3856 69.7556 34.1628 69.5763 34.0245C69.397 33.8836 69.1242 33.8132 68.758 33.8132H67.6668V35.5921ZM74.9937 36.2145H72.5693V38.197H75.3855V38.8002H71.8316V33.2061H75.3471V33.8132H72.5693V35.6113H74.9937V36.2145ZM78.3555 36.5372H77.0415V38.8002H76.3V33.2061H78.1518C78.7819 33.2061 79.266 33.3496 79.6041 33.6364C79.9448 33.9233 80.1151 34.3408 80.1151 34.889C80.1151 35.2373 80.0204 35.5408 79.8308 35.7995C79.6438 36.0582 79.3826 36.2516 79.047 36.3797L80.361 38.7541V38.8002H79.5696L78.3555 36.5372ZM77.0415 35.934H78.1749C78.5412 35.934 78.8319 35.8392 79.047 35.6497C79.2648 35.4601 79.3736 35.2066 79.3736 34.889C79.3736 34.5432 79.2699 34.2781 79.0624 34.0936C78.8575 33.9092 78.5604 33.8157 78.1711 33.8132H77.0415V35.934ZM84.7103 33.8132H82.9122V38.8002H82.1783V33.8132H80.3841V33.2061H84.7103V33.8132ZM87.1269 36.3067C86.4943 36.1248 86.0332 35.902 85.7438 35.6382C85.4569 35.3718 85.3135 35.0439 85.3135 34.6546C85.3135 34.214 85.4889 33.8503 85.8398 33.5634C86.1933 33.274 86.6518 33.1293 87.2153 33.1293C87.5995 33.1293 87.9414 33.2036 88.2411 33.3521C88.5434 33.5007 88.7765 33.7056 88.9404 33.9669C89.1069 34.2281 89.1901 34.5137 89.1901 34.8236H88.4486C88.4486 34.4855 88.341 34.2204 88.1259 34.0283C87.9107 33.8337 87.6072 33.7363 87.2153 33.7363C86.8516 33.7363 86.5673 33.817 86.3624 33.9784C86.16 34.1372 86.0588 34.3587 86.0588 34.6431C86.0588 34.871 86.1549 35.0644 86.347 35.2232C86.5417 35.3795 86.8708 35.5229 87.3344 35.6535C87.8006 35.7842 88.1643 35.9289 88.4255 36.0877C88.6894 36.2439 88.884 36.4271 89.0095 36.6371C89.1376 36.8471 89.2016 37.0943 89.2016 37.3786C89.2016 37.832 89.0249 38.1957 88.6714 38.4698C88.318 38.7413 87.8454 38.877 87.2537 38.877C86.8695 38.877 86.5109 38.804 86.1779 38.658C85.845 38.5095 85.5875 38.3071 85.4057 38.051C85.2264 37.7948 85.1367 37.5041 85.1367 37.1788H85.8783C85.8783 37.5169 86.0025 37.7846 86.2509 37.9818C86.502 38.1765 86.8362 38.2738 87.2537 38.2738C87.643 38.2738 87.9414 38.1944 88.1489 38.0356C88.3564 37.8768 88.4601 37.6604 88.4601 37.3863C88.4601 37.1122 88.3641 36.9009 88.172 36.7524C87.9799 36.6012 87.6315 36.4527 87.1269 36.3067ZM94.4538 36.1837C94.4538 36.7319 94.3616 37.2108 94.1771 37.6207C93.9927 38.0279 93.7315 38.3391 93.3934 38.5543C93.0553 38.7694 92.6608 38.877 92.21 38.877C91.7694 38.877 91.3788 38.7694 91.0382 38.5543C90.6975 38.3366 90.4324 38.0279 90.2429 37.6284C90.0559 37.2262 89.9598 36.7613 89.9547 36.2337V35.8303C89.9547 35.2924 90.0482 34.8172 90.2352 34.4049C90.4221 33.9925 90.686 33.6774 91.0266 33.4597C91.3699 33.2394 91.7618 33.1293 92.2023 33.1293C92.6506 33.1293 93.045 33.2381 93.3857 33.4559C93.7289 33.671 93.9927 33.9848 94.1771 34.3972C94.3616 34.807 94.4538 35.2847 94.4538 35.8303V36.1837ZM93.7199 35.8226C93.7199 35.1592 93.5867 34.6507 93.3204 34.2973C93.054 33.9412 92.6813 33.7632 92.2023 33.7632C91.7361 33.7632 91.3686 33.9412 91.0996 34.2973C90.8333 34.6507 90.6962 35.1425 90.6885 35.7726V36.1837C90.6885 36.8266 90.823 37.3325 91.092 37.7014C91.3635 38.0676 91.7361 38.2508 92.21 38.2508C92.6864 38.2508 93.0553 38.0779 93.3165 37.7321C93.5778 37.3837 93.7122 36.8856 93.7199 36.2375V35.8226ZM99.8596 38.8002H99.118L96.3018 34.4894V38.8002H95.5603V33.2061H96.3018L99.1257 37.5361V33.2061H99.8596V38.8002Z" fill="black"/>
</svg>
