<svg width="120" height="45" viewBox="0 0 120 45" fill="none" xmlns="http://www.w3.org/2000/svg">
<path d="M82.0772 0.485451H41.6777L54.3003 22.3426L41.6777 44.1997H82.0772L69.4547 22.3426L82.0772 0.485451ZM42.9436 1.21719H80.8113L69.0376 21.6109L67.7863 19.4522L77.0721 3.38321H46.6902L61.8811 29.6893L65.7008 23.0817L66.9448 25.2404L61.8811 34.0066L54.9223 21.9548L54.7247 21.6109L42.9436 1.21719ZM61.8738 35.4701L67.3619 25.9648L75.7989 40.5776H47.9488L56.3857 25.9648L61.8738 35.4701ZM47.9561 4.10763H75.8062L67.3692 18.7205L61.8811 9.21518L56.3931 18.7205L47.9561 4.10763ZM58.4858 22.3426L61.8811 16.4594L65.2764 22.3353L61.8811 28.2185L58.4858 22.3426ZM80.8113 43.468H42.9436L54.7174 23.0743L55.9686 25.233L46.6828 41.3094H77.0648L61.8738 15.0033L58.0541 21.6182L56.8028 19.4596L61.8665 10.686L68.8254 22.7378L69.0229 23.0817L80.8113 43.468Z" fill="black"/>
<path d="M1.96753 8.70963V24.6057H5.22748V14.2205H5.35943L9.47316 24.5281H11.693L15.8068 14.2593H15.9387V24.6057H19.1987V8.70963H15.0539L10.6762 19.3898H10.49L6.11232 8.70963H1.96753ZM24.7076 24.6057L25.8874 20.981H31.6233L32.8031 24.6057H36.4046L30.9248 8.70963H26.5937L21.1061 24.6057H24.7076ZM26.7412 18.3575L28.6971 12.3421H28.8213L30.7773 18.3575H26.7412Z" fill="black"/>
<path d="M89.4769 23.7313H92.7523L95.7717 13.3383H95.8958L98.9229 23.7313H102.198L106.747 7.8352H103.075L100.444 18.9035H100.305L97.4094 7.8352H94.2659L91.363 18.8802H91.231L88.5998 7.8352H84.9285L89.4769 23.7313ZM108.546 23.7313H118.721V20.9604H111.906V7.8352H108.546V23.7313Z" fill="black"/>
<path d="M3.54452 34.4519C4.24745 34.4519 4.79825 34.6197 5.19692 34.9555C5.59559 35.2912 5.79493 35.7528 5.79493 36.3403C5.79493 36.9279 5.59559 37.3895 5.19692 37.7252C4.79825 38.0557 4.24745 38.2209 3.54452 38.2209H2.06523V39.9599H1.48295V34.4519H3.54452ZM3.52878 37.7095C4.07434 37.7095 4.49137 37.5914 4.77989 37.3554C5.0684 37.1141 5.21266 36.7757 5.21266 36.3403C5.21266 35.8945 5.0684 35.5535 4.77989 35.3174C4.49137 35.0761 4.07434 34.9555 3.52878 34.9555H2.06523V37.7095H3.52878ZM10.8151 39.9599L9.55617 38.1895C9.41454 38.2052 9.26766 38.2131 9.11553 38.2131H7.63624V39.9599H7.05396V34.4519H9.11553C9.81846 34.4519 10.3693 34.6197 10.7679 34.9555C11.1666 35.2912 11.3659 35.7528 11.3659 36.3403C11.3659 36.7705 11.2558 37.1351 11.0355 37.4341C10.8204 37.7278 10.5109 37.9403 10.107 38.0714L11.4525 39.9599H10.8151ZM9.09979 37.7173C9.64535 37.7173 10.0624 37.5967 10.3509 37.3554C10.6394 37.1141 10.7837 36.7757 10.7837 36.3403C10.7837 35.8945 10.6394 35.5535 10.3509 35.3174C10.0624 35.0761 9.64535 34.9555 9.09979 34.9555H7.63624V37.7173H9.09979ZM16.6352 39.4563V39.9599H12.7402V34.4519H16.5172V34.9555H13.3225V36.9147H16.1709V37.4105H13.3225V39.4563H16.6352ZM19.5225 40.0071C19.1133 40.0071 18.7199 39.9415 18.3422 39.8104C17.9698 39.6792 17.6813 39.5061 17.4767 39.2911L17.7049 38.8425C17.9042 39.0419 18.1691 39.2045 18.4996 39.3304C18.8301 39.4511 19.1711 39.5114 19.5225 39.5114C20.0156 39.5114 20.3854 39.4222 20.632 39.2438C20.8785 39.0602 21.0018 38.8242 21.0018 38.5357C21.0018 38.3154 20.9336 38.1396 20.7972 38.0085C20.6661 37.8773 20.5035 37.7777 20.3094 37.7095C20.1153 37.636 19.8451 37.5573 19.4989 37.4734C19.0845 37.3685 18.754 37.2688 18.5075 37.1744C18.2609 37.0747 18.0485 36.9252 17.8701 36.7259C17.697 36.5266 17.6105 36.2564 17.6105 35.9154C17.6105 35.6374 17.6839 35.3856 17.8308 35.1601C17.9777 34.9292 18.2032 34.7456 18.5075 34.6093C18.8117 34.4729 19.1894 34.4047 19.6405 34.4047C19.9553 34.4047 20.2622 34.4493 20.5612 34.5384C20.8654 34.6224 21.1277 34.7404 21.348 34.8925L21.1513 35.3568C20.9205 35.2046 20.6739 35.0919 20.4117 35.0184C20.1494 34.9397 19.8923 34.9004 19.6405 34.9004C19.1579 34.9004 18.7934 34.9948 18.5468 35.1837C18.3055 35.3673 18.1849 35.6059 18.1849 35.8997C18.1849 36.12 18.2504 36.2984 18.3816 36.4348C18.518 36.5659 18.6858 36.6682 18.8852 36.7416C19.0897 36.8098 19.3625 36.8859 19.7035 36.9698C20.1074 37.0695 20.4326 37.1692 20.6792 37.2688C20.931 37.3633 21.1434 37.5101 21.3165 37.7095C21.4897 37.9036 21.5762 38.1685 21.5762 38.5042C21.5762 38.7822 21.5001 39.0366 21.348 39.2675C21.2011 39.493 20.973 39.674 20.6635 39.8104C20.354 39.9415 19.9736 40.0071 19.5225 40.0071ZM24.3635 40.0071C23.9544 40.0071 23.5609 39.9415 23.1832 39.8104C22.8108 39.6792 22.5223 39.5061 22.3177 39.2911L22.5459 38.8425C22.7452 39.0419 23.0101 39.2045 23.3406 39.3304C23.6711 39.4511 24.0121 39.5114 24.3635 39.5114C24.8566 39.5114 25.2264 39.4222 25.473 39.2438C25.7195 39.0602 25.8428 38.8242 25.8428 38.5357C25.8428 38.3154 25.7746 38.1396 25.6382 38.0085C25.5071 37.8773 25.3445 37.7777 25.1504 37.7095C24.9563 37.636 24.6861 37.5573 24.3399 37.4734C23.9255 37.3685 23.595 37.2688 23.3485 37.1744C23.1019 37.0747 22.8895 36.9252 22.7111 36.7259C22.538 36.5266 22.4515 36.2564 22.4515 35.9154C22.4515 35.6374 22.5249 35.3856 22.6718 35.1601C22.8187 34.9292 23.0442 34.7456 23.3485 34.6093C23.6527 34.4729 24.0304 34.4047 24.4816 34.4047C24.7963 34.4047 25.1032 34.4493 25.4022 34.5384C25.7064 34.6224 25.9687 34.7404 26.189 34.8925L25.9923 35.3568C25.7615 35.2046 25.515 35.0919 25.2527 35.0184C24.9904 34.9397 24.7334 34.9004 24.4816 34.9004C23.999 34.9004 23.6344 34.9948 23.3878 35.1837C23.1465 35.3673 23.0259 35.6059 23.0259 35.8997C23.0259 36.12 23.0914 36.2984 23.2226 36.4348C23.359 36.5659 23.5268 36.6682 23.7262 36.7416C23.9308 36.8098 24.2035 36.8859 24.5445 36.9698C24.9484 37.0695 25.2737 37.1692 25.5202 37.2688C25.772 37.3633 25.9845 37.5101 26.1576 37.7095C26.3307 37.9036 26.4172 38.1685 26.4172 38.5042C26.4172 38.7822 26.3412 39.0366 26.189 39.2675C26.0422 39.493 25.814 39.674 25.5045 39.8104C25.195 39.9415 24.8147 40.0071 24.3635 40.0071Z" fill="black"/>
<path d="M101.749 39.4563V39.9599H97.8855V39.5586L100.175 37.316C100.464 37.0328 100.658 36.7889 100.757 36.5843C100.862 36.3744 100.915 36.1646 100.915 35.9548C100.915 35.6295 100.802 35.3778 100.577 35.1994C100.356 35.0158 100.039 34.924 99.6244 34.924C98.9792 34.924 98.4782 35.1286 98.1215 35.5377L97.7202 35.1915C97.9353 34.9397 98.2081 34.7456 98.5386 34.6093C98.8743 34.4729 99.252 34.4047 99.6716 34.4047C100.233 34.4047 100.676 34.5384 101.001 34.806C101.332 35.0683 101.497 35.4302 101.497 35.8918C101.497 36.1751 101.434 36.4479 101.308 36.7102C101.182 36.9725 100.944 37.2741 100.592 37.6151L98.7195 39.4563H101.749ZM104.625 40.0071C104.2 40.0071 103.819 39.8943 103.484 39.6687C103.153 39.4432 102.893 39.1206 102.705 38.7009C102.521 38.276 102.429 37.7777 102.429 37.2059C102.429 36.6341 102.521 36.1384 102.705 35.7187C102.893 35.2938 103.153 34.9686 103.484 34.743C103.819 34.5175 104.2 34.4047 104.625 34.4047C105.049 34.4047 105.427 34.5175 105.758 34.743C106.093 34.9686 106.356 35.2938 106.544 35.7187C106.733 36.1384 106.828 36.6341 106.828 37.2059C106.828 37.7777 106.733 38.276 106.544 38.7009C106.356 39.1206 106.093 39.4432 105.758 39.6687C105.427 39.8943 105.049 40.0071 104.625 40.0071ZM104.625 39.4878C104.945 39.4878 105.225 39.3986 105.466 39.2202C105.713 39.0419 105.904 38.7822 106.041 38.4413C106.177 38.1003 106.245 37.6885 106.245 37.2059C106.245 36.7233 106.177 36.3115 106.041 35.9705C105.904 35.6295 105.713 35.3699 105.466 35.1915C105.225 35.0132 104.945 34.924 104.625 34.924C104.305 34.924 104.021 35.0132 103.775 35.1915C103.533 35.3699 103.345 35.6295 103.208 35.9705C103.072 36.3115 103.004 36.7233 103.004 37.2059C103.004 37.6885 103.072 38.1003 103.208 38.4413C103.345 38.7822 103.533 39.0419 103.775 39.2202C104.021 39.3986 104.305 39.4878 104.625 39.4878ZM111.385 39.4563V39.9599H107.521V39.5586L109.811 37.316C110.1 37.0328 110.294 36.7889 110.393 36.5843C110.498 36.3744 110.551 36.1646 110.551 35.9548C110.551 35.6295 110.438 35.3778 110.212 35.1994C109.992 35.0158 109.675 34.924 109.26 34.924C108.615 34.924 108.114 35.1286 107.757 35.5377L107.356 35.1915C107.571 34.9397 107.844 34.7456 108.174 34.6093C108.51 34.4729 108.888 34.4047 109.308 34.4047C109.869 34.4047 110.312 34.5384 110.637 34.806C110.968 35.0683 111.133 35.4302 111.133 35.8918C111.133 36.1751 111.07 36.4479 110.944 36.7102C110.818 36.9725 110.58 37.2741 110.228 37.6151L108.355 39.4563H111.385ZM114.26 40.0071C113.836 40.0071 113.455 39.8943 113.12 39.6687C112.789 39.4432 112.529 39.1206 112.341 38.7009C112.157 38.276 112.065 37.7777 112.065 37.2059C112.065 36.6341 112.157 36.1384 112.341 35.7187C112.529 35.2938 112.789 34.9686 113.12 34.743C113.455 34.5175 113.836 34.4047 114.26 34.4047C114.685 34.4047 115.063 34.5175 115.394 34.743C115.729 34.9686 115.992 35.2938 116.18 35.7187C116.369 36.1384 116.464 36.6341 116.464 37.2059C116.464 37.7777 116.369 38.276 116.18 38.7009C115.992 39.1206 115.729 39.4432 115.394 39.6687C115.063 39.8943 114.685 40.0071 114.26 40.0071ZM114.26 39.4878C114.58 39.4878 114.861 39.3986 115.102 39.2202C115.349 39.0419 115.54 38.7822 115.677 38.4413C115.813 38.1003 115.881 37.6885 115.881 37.2059C115.881 36.7233 115.813 36.3115 115.677 35.9705C115.54 35.6295 115.349 35.3699 115.102 35.1915C114.861 35.0132 114.58 34.924 114.26 34.924C113.94 34.924 113.657 35.0132 113.411 35.1915C113.169 35.3699 112.98 35.6295 112.844 35.9705C112.708 36.3115 112.64 36.7233 112.64 37.2059C112.64 37.6885 112.708 38.1003 112.844 38.4413C112.98 38.7822 113.169 39.0419 113.411 39.2202C113.657 39.3986 113.94 39.4878 114.26 39.4878Z" fill="black"/>
</svg>
