<svg width="158" height="45" viewBox="0 0 158 45" fill="none" xmlns="http://www.w3.org/2000/svg">
<path d="M29.0495 2.96024L21.5966 7.27187L0.313965 44.2001L42.9396 44.1732L50.3925 39.8616L29.0495 2.96024ZM23.8163 11.6104L7.73326 39.5252L1.81412 42.949L21.8454 8.1934L23.8163 11.6104ZM22.2961 7.64182L28.0069 4.33915L24.2063 10.9378L22.2961 7.64182ZM24.2063 12.2831L39.8925 39.4109L8.5606 39.4311L24.2063 12.2831ZM8.06959 40.1037L40.2827 40.0835L42.2602 43.5005L2.1437 43.5275L8.06959 40.1037ZM41.0561 40.0835L48.6705 40.0768L42.9598 43.3795L41.0561 40.0835ZM40.6727 39.4109L24.5965 11.6104L28.9283 4.09701L49.3499 39.4109H40.6727Z" fill="black"/>
<path d="M28.0603 35.3576H22.9333L21.9807 37.7132H18.4819L23.834 25.5887H27.2115L32.581 37.7132H29.0129L28.0603 35.3576ZM27.0556 32.8288L25.4968 28.9489L23.9379 32.8288H27.0556Z" fill="black"/>
<path d="M67.4775 20.7246C67.494 20.6586 67.5022 20.6091 67.5022 20.5761C67.5022 20.5431 67.4857 20.5266 67.4527 20.5266C67.4362 20.5266 67.3867 20.5679 67.3043 20.6503C67.2383 20.7328 67.1475 20.8483 67.0321 20.9968C66.9166 21.1452 66.6692 21.4257 66.2898 21.8381C65.9268 22.2505 65.5474 22.6381 65.1515 23.001C64.0793 24.0238 63.0071 24.8073 61.9348 25.3517C61.6709 25.4837 61.3822 25.5496 61.0688 25.5496C59.8646 25.5496 59.2625 24.6424 59.2625 22.8278C59.2625 21.2112 60.0295 19.2647 61.5637 16.9882C62.2895 15.9325 63.1555 14.9015 64.1618 13.8953C65.1845 12.8725 66.265 11.9652 67.4032 11.1734C68.5414 10.3816 69.7786 9.74652 71.1148 9.26814C72.451 8.77326 73.7542 8.52582 75.0244 8.52582C75.2388 8.52582 75.5275 8.60005 75.8904 8.74851C76.5007 9.01245 76.8059 9.29288 76.8059 9.58981C76.8059 9.75477 76.6987 9.8455 76.4843 9.86199C76.4018 9.86199 76.3605 9.89498 76.3605 9.96097C76.3605 10.027 76.476 10.1589 76.7069 10.3569C76.9544 10.5383 77.0781 10.7198 77.0781 10.9012C77.0781 11.0662 77.0204 11.2147 76.9049 11.3466C76.0801 12.2539 75.4203 13.0127 74.9254 13.6231C74.4305 14.2169 74.0511 14.6623 73.7872 14.9592C73.5397 15.2562 73.251 15.6026 72.9211 15.9985C72.6077 16.3779 72.253 16.8645 71.8571 17.4584C71.4612 18.0357 71.0983 18.6131 70.7684 19.1905C70.0096 20.5926 69.6302 21.8793 69.6302 23.0505C69.6302 24.2052 69.7374 25.3022 69.9519 26.3415C70.1663 27.3972 70.389 28.0405 70.6199 28.2715C70.6199 28.321 70.5622 28.3457 70.4467 28.3457C69.6879 28.3457 69.0363 28.0488 68.492 27.4549C67.5022 26.3497 67.0073 24.8981 67.0073 23.1C67.0073 22.4567 67.164 21.6648 67.4775 20.7246ZM70.7189 15.1572L75.4698 10.3816C75.5852 10.2661 75.643 10.1837 75.643 10.1342C75.643 10.0847 75.6017 10.0599 75.5192 10.0599C74.2491 10.2579 72.9046 10.7775 71.486 11.6188C70.0673 12.4601 68.7806 13.4334 67.6259 14.5386C66.4712 15.6438 65.4072 16.7738 64.434 17.9285C63.4607 19.0832 62.7019 20.1225 62.1575 21.0462C61.6296 21.97 61.3657 22.6299 61.3657 23.0258C61.3657 23.0917 61.4069 23.1247 61.4894 23.1247C61.5884 23.1247 61.7699 23.067 62.0338 22.9515C62.2977 22.8196 63.205 22.0937 64.7556 20.7741C66.3227 19.4379 68.3105 17.5656 70.7189 15.1572ZM83.7862 8.47633C84.2646 8.08043 84.809 7.88248 85.4193 7.88248C86.0297 7.88248 86.3349 8.0062 86.3349 8.25364C86.3349 8.35261 86.2606 8.50107 86.1122 8.69903C85.9802 8.99595 85.3616 10.1177 84.2564 12.0642C81.3696 17.112 79.9262 20.4771 79.9262 22.1597C79.9262 22.2917 79.9592 22.3577 80.0251 22.3577C80.1241 22.3577 80.2891 22.1927 80.52 21.8628C81.1964 20.6916 82.0624 19.3472 83.1181 17.8295C84.1739 16.3119 85.1719 14.9757 86.1122 13.821C87.0524 12.6663 88.1164 11.5858 89.3041 10.5796C90.4918 9.57331 91.5723 8.94647 92.5456 8.69903C94.1622 8.43509 95.2097 8.30312 95.6881 8.30312C95.7375 8.31962 95.7623 8.36086 95.7623 8.42684C95.7623 8.47633 95.6716 8.55056 95.4901 8.64954C93.6261 9.68878 91.3084 11.6683 88.5371 14.5881C85.7822 17.4914 83.2913 20.4771 81.0644 23.5454C80.4705 24.5516 80.0087 25.1785 79.6787 25.4259C79.3488 25.6734 78.9529 25.7971 78.491 25.7971C77.6332 25.7971 77.2043 24.8898 77.2043 23.0753C77.2043 22.2834 77.3611 21.4751 77.6745 20.6503C78.8292 17.5656 79.9097 15.3551 80.9159 14.019C81.4768 13.1942 81.7572 12.7405 81.7572 12.6581C81.7572 12.6086 81.6582 12.7075 81.4603 12.955C77.3528 18.1182 74.4495 21.4999 72.7504 23.1C71.5792 24.3207 70.2513 25.5744 68.7667 26.8611C67.282 28.1478 66.0943 29.0303 65.2035 29.5087C64.9231 29.7396 64.6262 29.8551 64.3127 29.8551C63.9993 29.8551 63.6199 29.7231 63.1745 29.4592C62.7291 29.1953 62.5064 28.8901 62.5064 28.5437C62.5064 28.3622 62.6054 28.1972 62.8034 28.0488L66.8614 24.6341C67.1088 24.4197 67.2655 24.3124 67.3315 24.3124C67.381 24.3124 67.4057 24.3454 67.4057 24.4114C67.4057 24.4609 67.381 24.5351 67.3315 24.6341C67.282 24.7331 67.2078 24.8403 67.1088 24.9558C66.9933 25.0713 66.8779 25.1785 66.7624 25.2775L66.3418 25.7229C65.8304 26.2342 65.5747 26.5147 65.5747 26.5641C65.5747 26.6301 65.5912 26.6631 65.6242 26.6631C65.6572 26.6631 65.7396 26.6136 65.8716 26.5147C67.4552 25.4259 69.7399 23.3804 72.7257 20.3782C75.7115 17.3594 78.3013 14.6211 80.4953 12.1632L83.7862 8.47633ZM91.1582 20.7246C91.1747 20.6586 91.1829 20.6091 91.1829 20.5761C91.1829 20.5431 91.1664 20.5266 91.1334 20.5266C91.1169 20.5266 91.0674 20.5679 90.985 20.6503C90.919 20.7328 90.8283 20.8483 90.7128 20.9968C90.5973 21.1452 90.3499 21.4257 89.9705 21.8381C89.6076 22.2505 89.2282 22.6381 88.8322 23.001C87.76 24.0238 86.6878 24.8073 85.6155 25.3517C85.3516 25.4837 85.0629 25.5496 84.7495 25.5496C83.5453 25.5496 82.9432 24.6424 82.9432 22.8278C82.9432 21.2112 83.7103 19.2647 85.2444 16.9882C85.9702 15.9325 86.8362 14.9015 87.8425 13.8953C88.8652 12.8725 89.9457 11.9652 91.0839 11.1734C92.2222 10.3816 93.4594 9.74652 94.7955 9.26814C96.1317 8.77326 97.4349 8.52582 98.7051 8.52582C98.9195 8.52582 99.2082 8.60005 99.5711 8.74851C100.181 9.01245 100.487 9.29288 100.487 9.58981C100.487 9.75477 100.379 9.8455 100.165 9.86199C100.082 9.86199 100.041 9.89498 100.041 9.96097C100.041 10.027 100.157 10.1589 100.388 10.3569C100.635 10.5383 100.759 10.7198 100.759 10.9012C100.759 11.0662 100.701 11.2147 100.586 11.3466C99.7608 12.2539 99.101 13.0127 98.6061 13.6231C98.1112 14.2169 97.7318 14.6623 97.4679 14.9592C97.2204 15.2562 96.9318 15.6026 96.6018 15.9985C96.2884 16.3779 95.9338 16.8645 95.5379 17.4584C95.142 18.0357 94.779 18.6131 94.4491 19.1905C93.6903 20.5926 93.3109 21.8793 93.3109 23.0505C93.3109 24.2052 93.4181 25.3022 93.6326 26.3415C93.847 27.3972 94.0697 28.0405 94.3007 28.2715C94.3007 28.321 94.2429 28.3457 94.1274 28.3457C93.3686 28.3457 92.717 28.0488 92.1727 27.4549C91.1829 26.3497 90.688 24.8981 90.688 23.1C90.688 22.4567 90.8448 21.6648 91.1582 20.7246ZM94.3996 15.1572L99.1505 10.3816C99.2659 10.2661 99.3237 10.1837 99.3237 10.1342C99.3237 10.0847 99.2824 10.0599 99.2 10.0599C97.9298 10.2579 96.5853 10.7775 95.1667 11.6188C93.748 12.4601 92.4614 13.4334 91.3066 14.5386C90.1519 15.6438 89.0879 16.7738 88.1147 17.9285C87.1414 19.0832 86.3826 20.1225 85.8382 21.0462C85.3104 21.97 85.0464 22.6299 85.0464 23.0258C85.0464 23.0917 85.0877 23.1247 85.1701 23.1247C85.2691 23.1247 85.4506 23.067 85.7145 22.9515C85.9784 22.8196 86.8857 22.0937 88.4363 20.7741C90.0035 19.4379 91.9912 17.5656 94.3996 15.1572ZM100.118 22.0113C101.306 20.6586 102.84 18.844 104.72 16.5676C106.601 14.2912 107.987 12.6746 108.877 11.7178C109.768 10.761 110.535 10.0352 111.179 9.54032C112.68 8.41859 114.206 7.85773 115.756 7.85773C116.103 7.85773 116.49 7.99795 116.919 8.27838C117.365 8.55881 117.587 8.99595 117.587 9.58981C117.587 10.1672 117.035 11.0579 115.929 12.2622C115.385 12.856 114.593 13.4664 113.554 14.0932C112.531 14.7036 111.385 15.1984 110.115 15.5778C109.636 15.6603 109.281 15.7016 109.051 15.7016C108.836 15.7016 108.729 15.6768 108.729 15.6273C108.729 15.5778 108.787 15.5201 108.902 15.4541C110.288 14.6953 111.838 13.5488 113.554 12.0147C115.286 10.4806 116.152 9.47434 116.152 8.99595C116.152 8.92997 116.103 8.89698 116.004 8.89698C115.921 8.89698 115.822 8.91347 115.707 8.94647C115.608 8.97946 115.492 9.01245 115.36 9.04544C115.228 9.07843 114.948 9.21865 114.519 9.46609C114.09 9.69703 113.636 9.99396 113.158 10.3569C112.696 10.7033 112.111 11.2477 111.401 11.99C110.708 12.7158 110.007 13.5571 109.298 14.5139C106.576 18.3244 104.811 20.6668 104.003 21.5411C103.871 21.6896 103.706 21.871 103.508 22.0855C103.92 22.135 104.539 22.1927 105.364 22.2587C106.189 22.3247 106.741 22.3824 107.022 22.4319C107.318 22.4649 107.747 22.5474 108.308 22.6793C108.869 22.8113 109.314 22.9763 109.644 23.1742C110.502 23.7021 111.327 24.4197 112.119 25.327C112.3 25.5249 112.391 25.6569 112.391 25.7229C112.391 25.7888 112.366 25.8218 112.317 25.8218C112.234 25.8218 112.127 25.7888 111.995 25.7229C111.748 25.6569 111.385 25.5661 110.906 25.4507C110.444 25.3352 109.438 25.1867 107.888 25.0053C106.337 24.8238 104.91 24.7331 103.607 24.7331C102.32 24.7331 101.38 24.7413 100.786 24.7578C99.9118 25.5826 98.6828 26.3497 97.0992 27.059C95.5156 27.7684 94.3279 28.123 93.5361 28.123C92.7278 28.123 91.969 27.9086 91.2597 27.4797C90.5503 27.0673 90.1957 26.5064 90.1957 25.7971C90.1957 25.2857 90.5833 24.7248 91.3586 24.1145C93.1402 22.7123 96.06 22.0113 100.118 22.0113ZM91.5566 26.5147C91.5566 26.6796 91.7545 26.7868 92.1504 26.8363C92.6618 26.8363 93.099 26.8033 93.4619 26.7374C93.8248 26.6879 94.3609 26.5064 95.0702 26.193C95.7631 25.8796 96.4971 25.4177 97.2724 24.8073C96.2167 24.8073 95.0042 24.997 93.6351 25.3764C92.2494 25.7558 91.5566 26.1353 91.5566 26.5147ZM124.063 8.77326C125.251 8.01444 126.257 7.63504 127.082 7.63504C127.841 7.63504 128.319 7.92372 128.517 8.50107C128.583 8.69903 128.616 8.85574 128.616 8.97121C128.616 9.59806 128.262 10.5796 127.552 11.9157C126.843 13.2519 125.903 14.7036 124.731 16.2707C123.56 17.8213 122.298 19.3142 120.946 20.7493C119.593 22.1845 118.183 23.3804 116.714 24.3372C115.246 25.294 113.96 25.7723 112.854 25.7723C112.079 25.7723 111.361 25.4424 110.702 24.7826C110.042 24.1227 109.712 23.3227 109.712 22.3824C109.712 21.4257 109.976 20.3617 110.504 19.1905C111.032 18.0027 111.757 16.8068 112.681 15.6026C113.621 14.3984 114.652 13.2767 115.774 12.2374C116.896 11.1817 118.117 10.3239 119.436 9.66404C120.772 9.0042 122.043 8.67428 123.247 8.67428C123.577 8.67428 123.849 8.70727 124.063 8.77326ZM112.211 23.8918C113.052 23.8918 114.694 22.8196 117.135 20.6751C119.576 18.5306 121.828 16.2954 123.89 13.9695C125.969 11.6271 127.008 10.1672 127.008 9.58981C127.008 9.54032 126.975 9.51558 126.909 9.51558C126.348 9.51558 125.556 9.8455 124.533 10.5053C123.527 11.1652 122.562 11.9075 121.638 12.7323C120.715 13.5571 119.915 14.2912 119.238 14.9345C118.578 15.5778 118.199 15.9737 118.1 16.1222C118.001 16.2707 117.919 16.3449 117.853 16.3449C117.82 16.3449 117.803 16.3037 117.803 16.2212L117.853 15.85C118.034 15.2562 118.587 14.2912 119.51 12.955L119.981 12.2622C120.096 12.0477 120.154 11.924 120.154 11.891C120.154 11.8415 120.137 11.8168 120.104 11.8168C119.972 11.8168 119.75 11.957 119.436 12.2374C118.199 13.3591 117.102 14.4974 116.145 15.6521C115.189 16.7903 114.454 17.7801 113.943 18.6213C113.448 19.4461 113.044 20.2379 112.731 20.9968C112.236 22.1515 111.988 22.9268 111.988 23.3227C111.988 23.7021 112.063 23.8918 112.211 23.8918ZM142.433 10.728C142.928 10.893 143.2 11.0579 143.249 11.2229L143.274 11.3219C143.274 11.6683 142.928 12.1549 142.235 12.7818C139.414 15.949 137.41 18.3986 136.222 20.1307C135.876 20.6256 135.389 21.3514 134.762 22.3082C134.135 23.2485 133.624 23.999 133.228 24.5599C132.849 25.1372 132.337 25.8548 131.694 26.7126C131.067 27.5869 130.506 28.3045 130.011 28.8653C129.533 29.4262 128.939 30.053 128.23 30.7459C127.537 31.4387 126.869 32.0161 126.226 32.4779C124.774 33.5172 123.215 34.2843 121.549 34.7791C121.12 34.7791 120.716 34.6719 120.336 34.4575C119.941 34.2595 119.734 33.9708 119.718 33.5914C119.734 32.7006 120.427 31.5954 121.796 30.2757C123.166 28.9726 125.005 27.9746 127.314 27.2817C127.644 27.1992 127.875 27.0755 128.007 26.9106L135.084 18.4729L135.455 17.978C135.488 17.912 135.505 17.8708 135.505 17.8543C135.505 17.8213 135.488 17.8048 135.455 17.8048C135.439 17.8048 135.076 18.1677 134.366 18.8935C133.657 19.6029 133.038 20.2379 132.511 20.7988C131.999 21.3597 131.323 22.036 130.482 22.8278C129.64 23.6031 128.609 24.3702 127.389 25.129C126.184 25.9043 125.17 26.292 124.345 26.292C123.256 26.292 122.58 25.5744 122.316 24.1392C122.267 23.8093 122.242 23.4794 122.242 23.1495C122.242 21.6648 122.885 20.073 124.172 18.3739C125.442 16.6583 127.001 15.1407 128.848 13.821C130.712 12.4848 132.717 11.3714 134.861 10.4806C137.006 9.57331 138.911 9.11142 140.577 9.09493H140.602C141.13 9.09493 141.567 9.27638 141.913 9.6393C142.276 9.98571 142.458 10.2909 142.458 10.5548C142.458 10.6373 142.449 10.695 142.433 10.728ZM120.955 33.4924C120.955 33.5914 120.996 33.6409 121.079 33.6409H121.128C121.541 33.6409 122.58 32.8491 124.246 31.2655C125.929 29.6984 126.918 28.5354 127.215 27.7766C127.215 27.7436 127.199 27.7271 127.166 27.7271C126.061 28.123 124.749 29.0798 123.232 30.5974C121.714 32.1315 120.955 33.0965 120.955 33.4924ZM141.517 11.1487C141.616 11.0497 141.666 10.9755 141.666 10.926C141.666 10.86 141.592 10.827 141.443 10.827C140.437 10.827 139.15 11.1734 137.583 11.8662C136.032 12.5426 134.441 13.4416 132.807 14.5633C131.191 15.6851 129.599 17.0707 128.032 18.7203C126.481 20.3534 125.252 22.0278 124.345 23.7433C124.296 23.8093 124.271 23.8753 124.271 23.9413C124.271 23.9908 124.312 24.0155 124.394 24.0155C125.318 24.0155 127.504 22.6711 130.952 19.9823C134.416 17.2769 137.938 14.3324 141.517 11.1487Z" fill="black"/>
<path d="M65.7132 34.4568V39.6531H65.2604L61.92 35.4367V39.6531H61.3707V34.4568H61.8235L65.1713 38.6732V34.4568H65.7132ZM69.5026 39.6976C68.8295 39.6976 68.305 39.5046 67.9289 39.1186C67.5528 38.7326 67.3647 38.1709 67.3647 37.4335V34.4568H67.914V37.4113C67.914 38.015 68.0501 38.4654 68.3223 38.7623C68.5945 39.0592 68.9879 39.2077 69.5026 39.2077C70.0222 39.2077 70.4181 39.0592 70.6903 38.7623C70.9625 38.4654 71.0986 38.015 71.0986 37.4113V34.4568H71.633V37.4335C71.633 38.1709 71.445 38.7326 71.0689 39.1186C70.6977 39.5046 70.1756 39.6976 69.5026 39.6976ZM76.8366 39.6531L75.6489 37.9829C75.5153 37.9977 75.3767 38.0051 75.2332 38.0051H73.8377V39.6531H73.2883V34.4568H75.2332C75.8964 34.4568 76.416 34.6152 76.7921 34.9319C77.1682 35.2487 77.3562 35.6841 77.3562 36.2384C77.3562 36.6442 77.2523 36.9882 77.0445 37.2702C76.8416 37.5474 76.5496 37.7478 76.1685 37.8715L77.4379 39.6531H76.8366ZM75.2184 37.5375C75.733 37.5375 76.1265 37.4236 76.3987 37.196C76.6708 36.9684 76.8069 36.6492 76.8069 36.2384C76.8069 35.8178 76.6708 35.4961 76.3987 35.2734C76.1265 35.0458 75.733 34.9319 75.2184 34.9319H73.8377V37.5375H75.2184ZM82.3272 39.178V39.6531H78.6527V34.4568H82.2159V34.9319H79.2021V36.7803H81.8893V37.248H79.2021V39.178H82.3272ZM87.961 34.4568V39.6531H87.5082L84.1678 35.4367V39.6531H83.6185V34.4568H84.0713L87.4191 38.6732V34.4568H87.961ZM91.9137 39.6976C91.399 39.6976 90.9338 39.5838 90.5181 39.3561C90.1074 39.1285 89.7832 38.8143 89.5457 38.4134C89.3131 38.0076 89.1968 37.5548 89.1968 37.055C89.1968 36.5551 89.3131 36.1048 89.5457 35.7039C89.7832 35.2981 90.1098 34.9814 90.5255 34.7538C90.9412 34.5261 91.4064 34.4123 91.9211 34.4123C92.3071 34.4123 92.6634 34.4766 92.99 34.6053C93.3167 34.734 93.5938 34.922 93.8214 35.1695L93.4725 35.5184C93.0667 35.1076 92.5545 34.9022 91.936 34.9022C91.5252 34.9022 91.1516 34.9963 90.815 35.1843C90.4785 35.3724 90.2138 35.6297 90.0208 35.9563C89.8327 36.283 89.7387 36.6492 89.7387 37.055C89.7387 37.4608 89.8327 37.827 90.0208 38.1536C90.2138 38.4802 90.4785 38.7376 90.815 38.9256C91.1516 39.1137 91.5252 39.2077 91.936 39.2077C92.5595 39.2077 93.0717 38.9998 93.4725 38.5841L93.8214 38.933C93.5938 39.1805 93.3142 39.371 92.9826 39.5046C92.656 39.6333 92.2997 39.6976 91.9137 39.6976ZM96.6653 37.8567V39.6531H96.1234V37.8567L94.0449 34.4568H94.6313L96.4129 37.3742L98.1944 34.4568H98.7438L96.6653 37.8567Z" fill="black"/>
</svg>
