<svg width="153" height="45" viewBox="0 0 153 45" fill="none" xmlns="http://www.w3.org/2000/svg">
<path d="M44.4237 22.343L37.1771 9.79589L37.0905 9.64145H27.8856L22.5974 0.48587L17.3093 9.64145H8.10424L0.77124 22.343L8.01781 34.8902L8.10424 35.0447H17.3093L22.5974 44.2002L27.8856 35.0447H37.0905L44.4237 22.343ZM36.7385 10.2592L43.5341 22.0341H35.0458L28.2502 10.2592H36.7385ZM15.2706 22.0341H10.8781L17.6737 10.2592H22.0662L15.2706 22.0341ZM15.2706 22.6519L22.0662 34.4269H17.6737L10.8781 22.6519H15.2706ZM15.808 22.343L22.6036 10.5681L29.3992 22.343L22.6036 34.118L15.808 22.343ZM29.9367 22.6519H34.3291L27.5335 34.4269H23.1411L29.9367 22.6519ZM29.9367 22.0341L23.1411 10.2592H27.5335L34.3291 22.0341H29.9367ZM22.6036 1.71525L27.1752 9.63526H23.1349H22.0662H18.0259L22.6036 1.71525ZM8.47497 10.2592H16.9633L10.1677 22.0341H1.67936L8.47497 10.2592ZM8.47497 34.4269L1.67936 22.6519H10.1677L16.9633 34.4269H8.47497ZM22.6036 42.9646L18.032 35.0447H22.0724H23.1411H27.1814L22.6036 42.9646ZM28.2502 34.4269L35.0458 22.6519H43.5341L36.7385 34.4269H28.2502Z" fill="black"/>
<path d="M54.3438 37.5001H52.0001L51.4738 38.9601H50.713L52.8492 33.366H53.4947L55.6347 38.9601H54.8779L54.3438 37.5001ZM52.223 36.893H54.1248L53.172 34.2766L52.223 36.893ZM60.4566 37.185C60.3874 37.7767 60.1684 38.2339 59.7996 38.5567C59.4333 38.8768 58.9453 39.0369 58.3357 39.0369C57.6749 39.0369 57.1447 38.8 56.7451 38.3261C56.3481 37.8523 56.1496 37.2183 56.1496 36.4243V35.8864C56.1496 35.3665 56.2418 34.9093 56.4262 34.5148C56.6132 34.1203 56.877 33.8181 57.2177 33.6081C57.5583 33.3955 57.9528 33.2892 58.401 33.2892C58.9953 33.2892 59.4717 33.4557 59.8303 33.7886C60.1889 34.1191 60.3976 34.5776 60.4566 35.1641H59.715C59.651 34.7184 59.5114 34.3957 59.2962 34.1959C59.0836 33.9961 58.7852 33.8962 58.401 33.8962C57.9297 33.8962 57.5596 34.0704 57.2907 34.4187C57.0243 34.7671 56.8911 35.2627 56.8911 35.9056V36.4474C56.8911 37.0544 57.0179 37.5372 57.2715 37.8958C57.525 38.2544 57.8798 38.4337 58.3357 38.4337C58.7455 38.4337 59.0593 38.3415 59.277 38.1571C59.4973 37.9701 59.6433 37.6461 59.715 37.185H60.4566ZM64.556 37.5001H62.2124L61.686 38.9601H60.9253L63.0615 33.366H63.7069L65.847 38.9601H65.0901L64.556 37.5001ZM62.4352 36.893H64.337L63.3842 34.2766L62.4352 36.893ZM66.6 38.9601V33.366H68.1791C68.6658 33.366 69.0961 33.4736 69.4701 33.6888C69.844 33.9039 70.1322 34.21 70.3345 34.607C70.5394 35.004 70.6432 35.46 70.6457 35.9748V36.3321C70.6457 36.8597 70.5433 37.3221 70.3384 37.7191C70.136 38.1161 69.8453 38.4209 69.4662 38.6335C69.0897 38.8461 68.6504 38.955 68.1484 38.9601H66.6ZM67.3377 33.9731V38.3569H68.1138C68.6824 38.3569 69.1243 38.1801 69.4393 37.8267C69.7569 37.4732 69.9157 36.9699 69.9157 36.3167V35.9902C69.9157 35.3549 69.7659 34.8619 69.4662 34.511C69.1691 34.1575 68.7465 33.9782 68.1983 33.9731H67.3377ZM74.9258 36.3744H72.5015V38.3569H75.3177V38.9601H71.7638V33.366H75.2793V33.9731H72.5015V35.7712H74.9258V36.3744ZM77.1888 33.366L79.0176 37.9304L80.8464 33.366H81.8031V38.9601H81.0654V36.7816L81.1346 34.4303L79.2981 38.9601H78.7333L76.9006 34.4418L76.9736 36.7816V38.9601H76.236V33.366H77.1888ZM84.7039 36.1746L86.1639 33.366H87.0015L85.0727 36.8738V38.9601H84.3351V36.8738L82.4063 33.366H83.2516L84.7039 36.1746Z" fill="black"/>
<path d="M64.9385 21.7838C64.9385 22.4455 64.8532 23.0289 64.6824 23.5341C64.5188 24.0392 64.284 24.4768 63.978 24.8468C63.6792 25.2168 63.3235 25.5263 62.9108 25.7753C62.4981 26.0243 62.0463 26.2235 61.5554 26.3729C61.0716 26.5223 60.5557 26.6291 60.0079 26.6931C59.4671 26.7571 58.9157 26.7892 58.3537 26.7892C57.6137 26.7892 56.9307 26.7322 56.3045 26.6184C55.6784 26.5117 55.0879 26.3409 54.5329 26.1061C53.9851 25.8642 53.455 25.5547 52.9427 25.1776C52.4376 24.8005 51.9324 24.3416 51.4272 23.8009L53.6044 21.5917C53.8036 22.0826 54.0776 22.538 54.4262 22.9578C54.7748 23.3704 55.1555 23.7262 55.5681 24.025C55.9879 24.3238 56.4219 24.5586 56.8702 24.7294C57.3184 24.9001 57.7418 24.9855 58.1402 24.9855C58.6098 24.9855 59.0509 24.9535 59.4636 24.8895C59.8763 24.8183 60.2356 24.7045 60.5415 24.5479C60.8474 24.3914 61.0858 24.1851 61.2566 23.9289C61.4344 23.6657 61.5234 23.3384 61.5234 22.9471C61.5234 22.6483 61.4558 22.3921 61.3206 22.1787C61.1854 21.9652 61.0075 21.7838 60.787 21.6344C60.5735 21.4778 60.3281 21.3462 60.0506 21.2395C59.7731 21.1328 59.4885 21.0438 59.1968 20.9727C58.9122 20.8944 58.6311 20.8268 58.3537 20.7699C58.0762 20.7059 57.8307 20.6418 57.6173 20.5778C57.1975 20.4569 56.7599 20.3288 56.3045 20.1936C55.8492 20.0513 55.4009 19.8912 54.9598 19.7133C54.5187 19.5355 54.0989 19.3327 53.7005 19.105C53.3092 18.8702 52.9641 18.5963 52.6652 18.2832C52.3664 17.9631 52.1281 17.5966 51.9502 17.184C51.7723 16.7642 51.6834 16.2839 51.6834 15.7432C51.6834 15.0957 51.7616 14.523 51.9182 14.0249C52.0818 13.5198 52.3095 13.0822 52.6012 12.7122C52.8929 12.3422 53.238 12.0327 53.6364 11.7837C54.0349 11.5276 54.4724 11.3248 54.9491 11.1754C55.4259 11.0189 55.931 10.9086 56.4646 10.8445C57.0054 10.7734 57.5568 10.7378 58.1189 10.7378C58.8873 10.7378 59.5845 10.809 60.2107 10.9513C60.8439 11.0936 61.4273 11.2963 61.9609 11.5596C62.4946 11.8229 62.9819 12.1395 63.4231 12.5094C63.8713 12.8723 64.2911 13.2779 64.6824 13.7261L62.5052 15.9353C62.3345 15.423 62.0961 14.9605 61.7902 14.5479C61.4913 14.1352 61.1569 13.783 60.787 13.4913C60.417 13.1925 60.0292 12.9648 59.6237 12.8083C59.2181 12.6446 58.8268 12.5628 58.4497 12.5628C57.9588 12.5628 57.507 12.5984 57.0943 12.6695C56.6816 12.7336 56.3259 12.8438 56.0271 13.0004C55.7354 13.1498 55.5077 13.3561 55.344 13.6194C55.1804 13.8755 55.0986 14.1957 55.0986 14.5799C55.0986 14.8858 55.159 15.1455 55.28 15.359C55.4009 15.5724 55.561 15.7539 55.7603 15.9033C55.9666 16.0527 56.1978 16.1772 56.454 16.2768C56.7101 16.3693 56.9734 16.4511 57.2437 16.5223C57.5212 16.5934 57.7916 16.6575 58.0548 16.7144C58.3252 16.7642 58.5707 16.8211 58.7912 16.8851C59.2181 17.0061 59.6664 17.1342 60.136 17.2694C60.6055 17.4045 61.068 17.5646 61.5234 17.7496C61.9787 17.9275 62.4127 18.1338 62.8254 18.3686C63.2381 18.6034 63.6009 18.8844 63.914 19.2117C64.227 19.5319 64.4761 19.9054 64.6611 20.3323C64.8461 20.7521 64.9385 21.2359 64.9385 21.7838ZM81.1244 19.1264V19.3291C81.1101 19.9268 81.0461 20.5458 80.9323 21.1861C80.8255 21.8265 80.6726 22.4668 80.4733 23.1072C80.2741 23.7475 80.0358 24.3807 79.7583 25.0069C79.4808 25.633 79.1677 26.2306 78.8191 26.7998C78.4776 27.3761 78.1076 27.9133 77.7092 28.4114C77.3107 28.9165 76.891 29.3612 76.4498 29.7454L74.8596 28.8276C75.1087 28.4078 75.3328 27.9489 75.532 27.4509C75.7383 26.9599 75.9233 26.4441 76.087 25.9033C76.2506 25.3626 76.3894 24.8076 76.5032 24.2384C76.6241 23.6693 76.7238 23.1036 76.802 22.5415C76.8803 21.9795 76.9372 21.428 76.9728 20.8873C77.0155 20.3395 77.0368 19.8201 77.0368 19.3291C77.0368 18.9449 77.0333 18.5109 77.0261 18.0271C77.0261 17.5362 76.9977 17.0381 76.9408 16.533C76.891 16.0278 76.8056 15.5369 76.6846 15.0602C76.5637 14.5763 76.3822 14.1459 76.1403 13.7688C75.9055 13.3917 75.5996 13.0893 75.2225 12.8616C74.8525 12.634 74.3901 12.5201 73.8351 12.5201C73.3442 12.5201 72.9208 12.6055 72.5651 12.7763C72.2164 12.9399 71.9176 13.164 71.6686 13.4486C71.4267 13.7261 71.231 14.0498 71.0816 14.4198C70.9393 14.7898 70.8255 15.1811 70.7401 15.5938C70.6618 15.9993 70.6085 16.412 70.58 16.8318C70.5586 17.2444 70.548 17.6358 70.548 18.0057V20.9834H75.1478V22.7443H70.548V26.4797H66.311V18.6674C66.311 17.5504 66.4889 16.5116 66.8446 15.5511C67.2004 14.5906 67.702 13.7581 68.3495 13.0537C69.004 12.3422 69.7867 11.7873 70.6974 11.3888C71.6152 10.9833 72.6362 10.7805 73.7604 10.7805C74.5217 10.7805 75.2332 10.8908 75.8949 11.1114C76.5637 11.3248 77.172 11.6236 77.7199 12.0078C78.2677 12.3849 78.7551 12.8367 79.182 13.3632C79.616 13.8826 79.9753 14.4518 80.2599 15.0708C80.5516 15.6898 80.7722 16.3444 80.9216 17.0346C81.071 17.7247 81.1386 18.422 81.1244 19.1264ZM87.0326 26.4797H82.7957V11.1114H91.0988C91.8174 11.1114 92.504 11.2074 93.1586 11.3995C93.8203 11.5916 94.4037 11.8833 94.9089 12.2747C95.414 12.6589 95.816 13.1462 96.1149 13.7368C96.4208 14.3202 96.5738 15.0068 96.5738 15.7966C96.5738 16.2946 96.5026 16.7642 96.3603 17.2053C96.218 17.6393 96.0188 18.0378 95.7627 18.4006C95.5136 18.7635 95.2184 19.0908 94.8769 19.3825C94.5353 19.6742 94.1618 19.9197 93.7562 20.1189C93.3507 20.3181 92.9202 20.4711 92.4649 20.5778C92.0166 20.6845 91.5613 20.7379 91.0988 20.7379H87.0326V26.4797ZM92.2835 15.7966C92.2835 14.8076 92.0309 14.032 91.5257 13.47C91.0277 12.9008 90.2735 12.6162 89.2632 12.6162H87.0326V19.2864H89.2632C89.8039 19.2864 90.2628 19.2011 90.6399 19.0303C91.0241 18.8524 91.3372 18.607 91.5791 18.2939C91.821 17.9808 91.9989 17.6144 92.1127 17.1946C92.2265 16.7677 92.2835 16.3017 92.2835 15.7966ZM101.927 26.4797H97.6901V11.1114H105.246C105.958 11.1114 106.644 11.1967 107.306 11.3675C107.968 11.5311 108.551 11.7944 109.056 12.1573C109.569 12.513 109.974 12.9755 110.273 13.5447C110.579 14.1139 110.732 14.804 110.732 15.6151C110.732 16.2484 110.597 16.846 110.326 17.4081C110.063 17.9631 109.707 18.4611 109.259 18.9022C108.818 19.3362 108.309 19.6991 107.733 19.9908C107.157 20.2754 106.559 20.464 105.94 20.5565C106.217 21.026 106.506 21.4707 106.804 21.8905C107.11 22.3103 107.416 22.7052 107.722 23.0752C108.035 23.438 108.345 23.776 108.651 24.089C108.957 24.395 109.248 24.676 109.526 24.9322C110.18 25.5298 110.828 26.0456 111.468 26.4797H106.185C105.758 26.0741 105.353 25.5867 104.969 25.0175C104.641 24.5337 104.311 23.9361 103.976 23.2246C103.649 22.506 103.396 21.6771 103.218 20.7379H101.927V26.4797ZM106.431 15.6151C106.431 14.5835 106.178 13.8257 105.673 13.3419C105.175 12.8581 104.424 12.6162 103.421 12.6162H101.927V19.2864H103.421C103.955 19.2864 104.41 19.1868 104.787 18.9876C105.171 18.7813 105.485 18.5109 105.726 18.1765C105.968 17.835 106.146 17.4437 106.26 17.0025C106.374 16.5614 106.431 16.0989 106.431 15.6151ZM128.262 18.7742C128.262 20.0122 128.049 21.1292 127.622 22.1253C127.195 23.1143 126.605 23.9539 125.85 24.644C125.096 25.3342 124.203 25.8642 123.172 26.2342C122.14 26.6042 121.023 26.7892 119.82 26.7892C118.618 26.7892 117.501 26.6042 116.469 26.2342C115.438 25.8642 114.545 25.3342 113.791 24.644C113.036 23.9539 112.446 23.1143 112.019 22.1253C111.592 21.1292 111.379 20.0122 111.379 18.7742C111.379 17.5148 111.588 16.3907 112.008 15.4017C112.435 14.4056 113.022 13.566 113.769 12.883C114.523 12.1928 115.416 11.6663 116.448 11.3035C117.48 10.9335 118.604 10.7485 119.82 10.7485C121.037 10.7485 122.161 10.9335 123.193 11.3035C124.225 11.6663 125.114 12.1928 125.861 12.883C126.615 13.566 127.202 14.4056 127.622 15.4017C128.049 16.3907 128.262 17.5148 128.262 18.7742ZM123.951 18.7742C123.951 18.3046 123.929 17.8243 123.887 17.3334C123.844 16.8425 123.766 16.3658 123.652 15.9033C123.538 15.4408 123.381 15.0068 123.182 14.6012C122.99 14.1957 122.741 13.8435 122.435 13.5447C122.129 13.2387 121.759 13.0004 121.325 12.8296C120.898 12.6517 120.397 12.5628 119.82 12.5628C119.237 12.5628 118.728 12.6517 118.294 12.8296C117.86 13.0004 117.49 13.2352 117.184 13.534C116.878 13.8328 116.629 14.185 116.437 14.5906C116.245 14.9961 116.092 15.4301 115.978 15.8926C115.872 16.348 115.797 16.8247 115.754 17.3227C115.712 17.8136 115.69 18.2975 115.69 18.7742C115.69 19.2438 115.712 19.724 115.754 20.2149C115.797 20.7059 115.875 21.1826 115.989 21.645C116.103 22.1004 116.256 22.5309 116.448 22.9364C116.647 23.342 116.9 23.6977 117.206 24.0037C117.512 24.3025 117.878 24.5408 118.305 24.7187C118.739 24.8966 119.244 24.9855 119.82 24.9855C120.383 24.9855 120.873 24.8966 121.293 24.7187C121.713 24.5337 122.076 24.2883 122.382 23.9823C122.688 23.6693 122.94 23.3099 123.14 22.9044C123.346 22.4917 123.506 22.0577 123.62 21.6024C123.741 21.1399 123.826 20.6667 123.876 20.1829C123.926 19.6991 123.951 19.2295 123.951 18.7742ZM142.228 26.4797H137.906L134.299 21.0901L130.606 26.4797H127.618L133.167 19.4145L127.618 11.1114H131.94L135.43 16.3302L139.24 11.1114H142.228L136.561 18.0164L142.228 26.4797Z" fill="black"/>
</svg>
