<svg id="add-to-basket" xmlns="http://www.w3.org/2000/svg" width="18.635" height="22.086" viewBox="0 0 18.635 22.086">
  <path id="Path_17" data-name="Path 17" d="M58.635,19.5a.863.863,0,0,1-.863.863H56.91v.863a.863.863,0,0,1-1.725,0V20.36h-.863a.863.863,0,0,1,0-1.725h.863v-.863a.863.863,0,0,1,1.725,0v.863h.863A.863.863,0,0,1,58.635,19.5Zm0-13.459v8.282a.863.863,0,0,1-1.725,0V6.9H55.184V9.49a.863.863,0,1,1-1.725,0V6.9H45.176V9.49a.863.863,0,0,1-1.725,0V6.9H41.725V20.36H50.87a.863.863,0,1,1,0,1.725H40.863A.863.863,0,0,1,40,21.223V6.039a.863.863,0,0,1,.863-.863h2.629a5.866,5.866,0,0,1,11.652,0h2.629A.863.863,0,0,1,58.635,6.039ZM53.4,5.176a4.141,4.141,0,0,0-8.167,0Z" transform="translate(-40)" fill="#373737"/>
</svg>
